<svg xmlns="http://www.w3.org/2000/svg" width="16" height="16"><path fill="#212121" d="M8 .2a8 8 0 00-2.53 15.59c.4.07.55-.17.55-.39L6 13.92c-2.23.48-2.7-.95-2.7-.95-.36-.92-.89-1.17-.89-1.17-.72-.5.06-.49.06-.49.8.06 1.23.83 1.23.83.7 1.22 1.87.87 2.32.66.07-.51.28-.87.51-1.07-1.78-.2-3.64-.88-3.64-3.95 0-.87.3-1.59.82-2.15-.08-.2-.36-1.01.08-2.12 0 0 .67-.21 2.2.82a7.67 7.67 0 014 0c1.53-1.03 2.2-.82 2.2-.82.44 1.1.16 1.92.08 2.12.51.56.82 1.28.82 2.15 0 3.07-1.87 3.75-3.65 3.95.29.24.54.73.54 1.48v2.2c0 .2.14.45.54.38A8 8 0 008 .19z"/></svg>